<svg xmlns="http://www.w3.org/2000/svg" viewBox="0 0 1400 1800">
  <!-- Background -->
  <rect width="1400" height="1800" fill="#f8fafc"/>
  
  <!-- Browser Frame -->
  <rect x="40" y="40" width="1320" height="1720" rx="10" fill="white" filter="drop-shadow(0 4px 6px rgba(0,0,0,0.1))"/>
  <rect x="40" y="40" width="1320" height="40" rx="10" fill="#f1f5f9"/>
  <rect x="40" y="40" width="1320" height="10" rx="10" fill="#64748b"/>
  
  <!-- Browser Controls -->
  <circle cx="65" cy="60" r="8" fill="#ef4444"/>
  <circle cx="90" cy="60" r="8" fill="#f59e0b"/>
  <circle cx="115" cy="60" r="8" fill="#10b981"/>
  
  <!-- Address Bar -->
  <rect x="150" y="50" width="1000" height="20" rx="10" fill="#e2e8f0"/>
  <text x="170" y="65" font-family="Arial" font-size="12" fill="#64748b">https://projectpulse.app/project/marketing-campaign/analytics</text>
  
  <!-- ===== APP SIDEBAR ===== -->
  <rect x="40" y="80" width="200" height="1680" fill="#1e40af"/>
  
  <!-- App Logo -->
  <rect x="65" y="110" width="150" height="50" rx="5" fill="none"/>
  <text x="90" y="140" font-family="Arial" font-size="24" font-weight="bold" fill="white">ProjectPulse</text>
  
  <!-- Sidebar Navigation -->
  <rect x="65" y="190" width="150" height="40" rx="5" fill="#1e40af"/>
  <text x="95" y="215" font-family="Arial" font-size="14" fill="white">📊 Dashboard</text>
  
  <rect x="65" y="240" width="150" height="40" rx="5" fill="#2563eb"/>
  <text x="95" y="265" font-family="Arial" font-size="14" fill="white">📁 Projects</text>
  
  <rect x="65" y="290" width="150" height="40" rx="5" fill="#1e40af"/>
  <text x="95" y="315" font-family="Arial" font-size="14" fill="white">📈 Analytics</text>
  
  <rect x="65" y="340" width="150" height="40" rx="5" fill="#1e40af"/>
  <text x="95" y="365" font-family="Arial" font-size="14" fill="white">👥 Team</text>
  
  <rect x="65" y="390" width="150" height="40" rx="5" fill="#1e40af"/>
  <text x="95" y="415" font-family="Arial" font-size="14" fill="white">📤 Sharing</text>
  
  <rect x="65" y="440" width="150" height="40" rx="5" fill="#1e40af"/>
  <text x="95" y="465" font-family="Arial" font-size="14" fill="white">⚙️ Settings</text>
  
  <!-- User Profile -->
  <rect x="60" y="1650" width="160" height="60" rx="5" fill="#1e3a8a"/>
  <circle cx="90" cy="1680" r="20" fill="#bfdbfe"/>
  <text x="90" y="1685" font-family="Arial" font-size="14" text-anchor="middle" fill="#1e40af">JD</text>
  <text x="120" y="1675" font-family="Arial" font-size="14" fill="white">John Doe</text>
  <text x="120" y="1693" font-family="Arial" font-size="12" fill="#93c5fd">Product Manager</text>
  
  <!-- ===== CONTENT AREA ===== -->
  <rect x="240" y="80" width="1120" height="1680" fill="white"/>
  
  <!-- Top Bar -->
  <rect x="240" y="80" width="1120" height="70" fill="white" filter="drop-shadow(0 2px 4px rgba(0,0,0,0.05))"/>
  <text x="270" y="125" font-family="Arial" font-size="24" font-weight="bold" fill="#1e40af">Marketing Campaign 2025</text>
  
  <!-- Project Progress -->
  <rect x="570" y="110" width="200" height="10" rx="5" fill="#f1f5f9"/>
  <rect x="570" y="110" width="120" height="10" rx="5" fill="#3b82f6"/>
  <text x="780" y="120" font-family="Arial" font-size="14" fill="#64748b">60% Complete</text>
  
  <!-- Search Bar -->
  <rect x="900" y="100" width="250" height="30" rx="15" fill="#f8fafc" stroke="#e2e8f0" stroke-width="1"/>
  <text x="925" y="120" font-family="Arial" font-size="12" fill="#94a3b8">🔍 Search tasks, analytics...</text>
  
  <!-- Notification Icon -->
  <circle cx="1180" cy="115" r="15" fill="#f8fafc" stroke="#e2e8f0" stroke-width="1"/>
  <text x="1180" y="120" font-family="Arial" font-size="12" text-anchor="middle" fill="#64748b">🔔</text>
  <circle cx="1190" cy="105" r="6" fill="#ef4444"/>
  
  <!-- Share Button -->
  <rect x="1210" y="100" width="120" height="30" rx="15" fill="#3b82f6"/>
  <text x="1270" y="120" font-family="Arial" font-size="14" text-anchor="middle" fill="white">Share ↗</text>
  
  <!-- ===== TABS ===== -->
  <rect x="270" y="160" width="1060" height="50" fill="#f8fafc" stroke="#e2e8f0" stroke-width="1"/>
  <rect x="270" y="160" width="130" height="50" fill="white"/>
  <text x="335" y="190" font-family="Arial" font-size="14" text-anchor="middle" fill="#64748b">Overview</text>
  
  <rect x="400" y="160" width="130" height="50" fill="white"/>
  <text x="465" y="190" font-family="Arial" font-size="14" text-anchor="middle" fill="#64748b">Tasks</text>
  
  <rect x="530" y="160" width="130" height="50" fill="#3b82f6"/>
  <text x="595" y="190" font-family="Arial" font-size="14" text-anchor="middle" font-weight="bold" fill="white">Analytics</text>
  
  <rect x="660" y="160" width="130" height="50" fill="white"/>
  <text x="725" y="190" font-family="Arial" font-size="14" text-anchor="middle" fill="#64748b">Files</text>
  
  <rect x="790" y="160" width="130" height="50" fill="white"/>
  <text x="855" y="190" font-family="Arial" font-size="14" text-anchor="middle" fill="#64748b">Team</text>
  
  <rect x="920" y="160" width="130" height="50" fill="white"/>
  <text x="985" y="190" font-family="Arial" font-size="14" text-anchor="middle" fill="#64748b">Timeline</text>
  
  <!-- ===== ANALYTICS DASHBOARD ===== -->
  <!-- Data Import Banner -->
  <rect x="270" y="230" width="1060" height="80" rx="8" fill="#f0f9ff" stroke="#bae6fd" stroke-width="1"/>
  <text x="330" y="270" font-family="Arial" font-size="16" fill="#0ea5e9">📤 Upload project data for enhanced analytics</text>
  <text x="330" y="290" font-family="Arial" font-size="14" fill="#64748b">Import tasks, timelines, or project metrics</text>
  <rect x="950" y="255" width="150" height="35" rx="6" fill="#0ea5e9"/>
  <text x="1025" y="277" font-family="Arial" font-size="14" text-anchor="middle" fill="white">Upload Data</text>
  <rect x="1110" y="255" width="150" height="35" rx="6" fill="white" stroke="#0ea5e9" stroke-width="1"/>
  <text x="1185" y="277" font-family="Arial" font-size="14" text-anchor="middle" fill="#0ea5e9">Connect Tool</text>
  
  <!-- Analytics Metrics Row -->
  <text x="270" y="350" font-family="Arial" font-size="18" font-weight="bold" fill="#1e293b">Project Metrics</text>
  
  <rect x="270" y="370" width="250" height="120" rx="10" fill="white" filter="drop-shadow(0 2px 8px rgba(0,0,0,0.05))"/>
  <rect x="270" y="370" width="250" height="8" rx="4" fill="#3b82f6"/>
  <text x="290" y="400" font-family="Arial" font-size="14" fill="#64748b">Task Completion Rate</text>
  <text x="290" y="435" font-family="Arial" font-size="24" font-weight="bold" fill="#1e40af">68%</text>
  <text x="350" y="435" font-family="Arial" font-size="14" fill="#10b981">↑ 12%</text>
  <rect x="290" y="450" width="210" height="4" rx="2" fill="#f1f5f9"/>
  <rect x="290" y="450" width="143" height="4" rx="2" fill="#3b82f6"/>
  
  <rect x="540" y="370" width="250" height="120" rx="10" fill="white" filter="drop-shadow(0 2px 8px rgba(0,0,0,0.05))"/>
  <rect x="540" y="370" width="250" height="8" rx="4" fill="#f59e0b"/>
  <text x="560" y="400" font-family="Arial" font-size="14" fill="#64748b">Average Task Duration</text>
  <text x="560" y="435" font-family="Arial" font-size="24" font-weight="bold" fill="#1e40af">2.4 days</text>
  <text x="650" y="435" font-family="Arial" font-size="14" fill="#ef4444">↑ 0.5 days</text>
  <rect x="560" y="450" width="210" height="4" rx="2" fill="#f1f5f9"/>
  <rect x="560" y="450" width="105" height="4" rx="2" fill="#f59e0b"/>
  
  <rect x="810" y="370" width="250" height="120" rx="10" fill="white" filter="drop-shadow(0 2px 8px rgba(0,0,0,0.05))"/>
  <rect x="810" y="370" width="250" height="8" rx="4" fill="#a855f7"/>
  <text x="830" y="400" font-family="Arial" font-size="14" fill="#64748b">Team Workload</text>
  <text x="830" y="435" font-family="Arial" font-size="24" font-weight="bold" fill="#1e40af">74%</text>
  <text x="890" y="435" font-family="Arial" font-size="14" fill="#ef4444">↑ 8%</text>
  <rect x="830" y="450" width="210" height="4" rx="2" fill="#f1f5f9"/>
  <rect x="830" y="450" width="155" height="4" rx="2" fill="#a855f7"/>
  
  <rect x="1080" y="370" width="250" height="120" rx="10" fill="white" filter="drop-shadow(0 2px 8px rgba(0,0,0,0.05))"/>
  <rect x="1080" y="370" width="250" height="8" rx="4" fill="#10b981"/>
  <text x="1100" y="400" font-family="Arial" font-size="14" fill="#64748b">Estimated Completion</text>
  <text x="1100" y="435" font-family="Arial" font-size="24" font-weight="bold" fill="#1e40af">June 28</text>
  <text x="1200" y="435" font-family="Arial" font-size="14" fill="#10b981">On schedule</text>
  <rect x="1100" y="450" width="210" height="4" rx="2" fill="#f1f5f9"/>
  <rect x="1100" y="450" width="170" height="4" rx="2" fill="#10b981"/>
  
  <!-- Team Contribution Analysis -->
  <text x="270" y="530" font-family="Arial" font-size="18" font-weight="bold" fill="#1e293b">Team Contribution Analysis</text>
  
  <rect x="270" y="550" width="520" height="340" rx="10" fill="white" filter="drop-shadow(0 2px 8px rgba(0,0,0,0.05))"/>
  
  <!-- Contribution Heading -->
  <text x="290" y="580" font-family="Arial" font-size="16" font-weight="bold" fill="#1e293b">Individual Contributions</text>
  <rect x="290" y="590" width="480" height="1" fill="#e2e8f0"/>
  
  <!-- Team Member 1 -->
  <circle cx="320" cy="620" r="20" fill="#bfdbfe"/>
  <text x="320" y="625" font-family="Arial" font-size="14" text-anchor="middle" fill="#1e40af">JD</text>
  <text x="350" y="615" font-family="Arial" font-size="16" fill="#1e293b">John Doe</text>
  <text x="350" y="635" font-family="Arial" font-size="14" fill="#64748b">Project Lead</text>
  <!-- Task Distribution for John -->
  <rect x="470" y="610" width="20" height="20" rx="2" fill="#3b82f6"/>
  <text x="500" y="625" font-family="Arial" font-size="12" fill="#64748b">Completed: 14</text>
  <rect x="590" y="610" width="20" height="20" rx="2" fill="#f59e0b"/>
  <text x="620" y="625" font-family="Arial" font-size="12" fill="#64748b">In Progress: 5</text>
  <rect x="710" y="610" width="20" height="20" rx="2" fill="#cbd5e1"/>
  <text x="740" y="625" font-family="Arial" font-size="12" fill="#64748b">Planned: 3</text>
  
  <!-- Progress Bar John -->
  <rect x="290" y="645" width="480" height="8" rx="4" fill="#f1f5f9"/>
  <rect x="290" y="645" width="336" height="8" rx="4" fill="#3b82f6"/>
  <text x="780" y="645" font-family="Arial" font-size="12" text-anchor="end" fill="#64748b">70%</text>
  
  <!-- Team Member 2 -->
  <circle cx="320" cy="685" r="20" fill="#c7d2fe"/>
  <text x="320" y="690" font-family="Arial" font-size="14" text-anchor="middle" fill="#4338ca">AS</text>
  <text x="350" y="680" font-family="Arial" font-size="16" fill="#1e293b">Alice Smith</text>
  <text x="350" y="700" font-family="Arial" font-size="14" fill="#64748b">Designer</text>
  <!-- Task Distribution for Alice -->
  <rect x="470" y="675" width="20" height="20" rx="2" fill="#3b82f6"/>
  <text x="500" y="690" font-family="Arial" font-size="12" fill="#64748b">Completed: 8</text>
  <rect x="590" y="675" width="20" height="20" rx="2" fill="#f59e0b"/>
  <text x="620" y="690" font-family="Arial" font-size="12" fill="#64748b">In Progress: 4</text>
  <rect x="710" y="675" width="20" height="20" rx="2" fill="#cbd5e1"/>
  <text x="740" y="690" font-family="Arial" font-size="12" fill="#64748b">Planned: 6</text>
  
  <!-- Progress Bar Alice -->
  <rect x="290" y="710" width="480" height="8" rx="4" fill="#f1f5f9"/>
  <rect x="290" y="710" width="216" height="8" rx="4" fill="#3b82f6"/>
  <text x="780" y="710" font-family="Arial" font-size="12" text-anchor="end" fill="#64748b">45%</text>
  
  <!-- Team Member 3 -->
  <circle cx="320" cy="750" r="20" fill="#fecaca"/>
  <text x="320" y="755" font-family="Arial" font-size="14" text-anchor="middle" fill="#b91c1c">BJ</text>
  <text x="350" y="745" font-family="Arial" font-size="16" fill="#1e293b">Bob Johnson</text>
  <text x="350" y="765" font-family="Arial" font-size="14" fill="#64748b">Developer</text>
  <!-- Task Distribution for Bob -->
  <rect x="470" y="740" width="20" height="20" rx="2" fill="#3b82f6"/>
  <text x="500" y="755" font-family="Arial" font-size="12" fill="#64748b">Completed: 10</text>
  <rect x="590" y="740" width="20" height="20" rx="2" fill="#f59e0b"/>
  <text x="620" y="755" font-family="Arial" font-size="12" fill="#64748b">In Progress: 8</text>
  <rect x="710" y="740" width="20" height="20" rx="2" fill="#cbd5e1"/>
  <text x="740" y="755" font-family="Arial" font-size="12" fill="#64748b">Planned: 2</text>
  
  <!-- Progress Bar Bob -->
  <rect x="290" y="775" width="480" height="8" rx="4" fill="#f1f5f9"/>
  <rect x="290" y="775" width="240" height="8" rx="4" fill="#3b82f6"/>
  <text x="780" y="775" font-family="Arial" font-size="12" text-anchor="end" fill="#64748b">50%</text>
  
  <!-- Team Member 4 -->
  <circle cx="320" cy="815" r="20" fill="#fed7aa"/>
  <text x="320" y="820" font-family="Arial" font-size="14" text-anchor="middle" fill="#9a3412">SL</text>
  <text x="350" y="810" font-family="Arial" font-size="16" fill="#1e293b">Sarah Lee</text>
  <text x="350" y="830" font-family="Arial" font-size="14" fill="#64748b">Content Writer</text>
  <!-- Task Distribution for Sarah -->
  <rect x="470" y="805" width="20" height="20" rx="2" fill="#3b82f6"/>
  <text x="500" y="820" font-family="Arial" font-size="12" fill="#64748b">Completed: 7</text>
  <rect x="590" y="805" width="20" height="20" rx="2" fill="#f59e0b"/>
  <text x="620" y="820" font-family="Arial" font-size="12" fill="#64748b">In Progress: 2</text>
  <rect x="710" y="805" width="20" height="20" rx="2" fill="#cbd5e1"/>
  <text x="740" y="820" font-family="Arial" font-size="12" fill="#64748b">Planned: 3</text>
  
  <!-- Progress Bar Sarah -->
  <rect x="290" y="840" width="480" height="8" rx="4" fill="#f1f5f9"/>
  <rect x="290" y="840" width="288" height="8" rx="4" fill="#3b82f6"/>
  <text x="780" y="840" font-family="Arial" font-size="12" text-anchor="end" fill="#64748b">60%</text>
  
  <!-- Team Contribution chart -->
  <rect x="290" y="860" width="480" height="20" rx="0" fill="#f8fafc"/>
  <text x="290" y="875" font-family="Arial" font-size="12" fill="#64748b">Overall Completion: 39/71 tasks (55%)</text>
  
  <!-- Project Timeline -->
  <rect x="810" y="550" width="520" height="340" rx="10" fill="white" filter="drop-shadow(0 2px 8px rgba(0,0,0,0.05))"/>
  
  <!-- Burndown Chart -->
  <text x="830" y="580" font-family="Arial" font-size="16" font-weight="bold" fill="#1e293b">Project Burndown</text>
  <rect x="830" y="590" width="480" height="1" fill="#e2e8f0"/>
  
  <!-- Chart Area -->
  <rect x="830" y="600" width="480" height="240" rx="0" fill="#fafafa"/>
  
  <!-- Chart Grid -->
  <line x1="830" y1="600" x2="830" y2="840" stroke="#e2e8f0" stroke-width="1"/>
  <line x1="830" y1="840" x2="1310" y2="840" stroke="#e2e8f0" stroke-width="1"/>
  
  <!-- Grid Lines -->
  <line x1="830" y1="660" x2="1310" y2="660" stroke="#e2e8f0" stroke-width="0.5" stroke-dasharray="4"/>
  <line x1="830" y1="720" x2="1310" y2="720" stroke="#e2e8f0" stroke-width="0.5" stroke-dasharray="4"/>
  <line x1="830" y1="780" x2="1310" y2="780" stroke="#e2e8f0" stroke-width="0.5" stroke-dasharray="4"/>
  
  <!-- X-Axis Labels -->
  <text x="870" y="860" font-family="Arial" font-size="12" text-anchor="middle" fill="#64748b">Apr</text>
  <text x="950" y="860" font-family="Arial" font-size="12" text-anchor="middle" fill="#64748b">May</text>
  <text x="1030" y="860" font-family="Arial" font-size="12" text-anchor="middle" fill="#64748b">Jun</text>
  <text x="1110" y="860" font-family="Arial" font-size="12" text-anchor="middle" fill="#64748b">Jul</text>
  <text x="1190" y="860" font-family="Arial" font-size="12" text-anchor="middle" fill="#64748b">Aug</text>
  <text x="1270" y="860" font-family="Arial" font-size="12" text-anchor="middle" fill="#64748b">Sep</text>
  
  <!-- Y-Axis Labels -->
  <text x="820" y="845" font-family="Arial" font-size="12" text-anchor="end" fill="#64748b">0</text>
  <text x="820" y="785" font-family="Arial" font-size="12" text-anchor="end" fill="#64748b">25</text>
  <text x="820" y="725" font-family="Arial" font-size="12" text-anchor="end" fill="#64748b">50</text>
  <text x="820" y="665" font-family="Arial" font-size="12" text-anchor="end" fill="#64748b">75</text>
  <text x="820" y="605" font-family="Arial" font-size="12" text-anchor="end" fill="#64748b">100</text>
  
  <!-- Ideal Burndown Line -->
  <path d="M830,600 L1270,840" stroke="#94a3b8" stroke-width="2" stroke-dasharray="6" fill="none"/>
  
  <!-- Actual Burndown Line -->
  <path d="M830,600 L870,610 L910,640 L950,680 L990,690 L1030,720 L1070,740 L1110,730" stroke="#3b82f6" stroke-width="3" fill="none"/>
  <circle cx="830" cy="600" r="5" fill="#3b82f6"/>
  <circle cx="870" cy="610" r="5" fill="#3b82f6"/>
  <circle cx="910" cy="640" r="5" fill="#3b82f6"/>
  <circle cx="950" cy="680" r="5" fill="#3b82f6"/>
  <circle cx="990" cy="690" r="5" fill="#3b82f6"/>
  <circle cx="1030" cy="720" r="5" fill="#3b82f6"/>
  <circle cx="1070" cy="740" r="5" fill="#3b82f6"/>
  <circle cx="1110" cy="730" r="5" fill="#3b82f6"/>
  
  <!-- Chart Legend -->
  <line x1="1150" y1="810" x2="1180" y2="810" stroke="#94a3b8" stroke-width="2" stroke-dasharray="6"/>
  <text x="1185" y="815" font-family="Arial" font-size="12" fill="#64748b">Ideal Burndown</text>
  <line x1="1150" y1="830" x2="1180" y2="830" stroke="#3b82f6" stroke-width="2"/>
  <text x="1185" y="835" font-family="Arial" font-size="12" fill="#64748b">Actual Progress</text>
  
  <!-- ===== TASK DETAIL ===== -->
  <text x="270" y="930" font-family="Arial" font-size="18" font-weight="bold" fill="#1e293b">Task Analytics</text>
  
  <!-- Filter Controls -->
  <rect x="1080" y="920" width="120" height="30" rx="15" fill="#f8fafc" stroke="#cbd5e1" stroke-width="1"/>
  <text x="1140" y="940" font-family="Arial" font-size="14" text-anchor="middle" fill="#64748b">Filter</text>
  
  <rect x="1210" y="920" width="120" height="30" rx="15" fill="#f8fafc" stroke="#cbd5e1" stroke-width="1"/>
  <text x="1270" y="940" font-family="Arial" font-size="14" text-anchor="middle" fill="#64748b">Export</text>
  
  <!-- Task Table -->
  <rect x="270" y="960" width="1060" height="40" rx="6" fill="#f8fafc"/>
  <text x="290" y="985" font-family="Arial" font-size="14" font-weight="bold" fill="#1e293b">Task Name</text>
  <text x="600" y="985" font-family="Arial" font-size="14" font-weight="bold" fill="#1e293b">Assignee</text>
  <text x="750" y="985" font-family="Arial" font-size="14" font-weight="bold" fill="#1e293b">Status</text>
  <text x="900" y="985" font-family="Arial" font-size="14" font-weight="bold" fill="#1e293b">Due Date</text>
  <text x="1050" y="985" font-family="Arial" font-size="14" font-weight="bold" fill="#1e293b">Subtasks</text>
  <text x="1200" y="985" font-family="Arial" font-size="14" font-weight="bold" fill="#1e293b">Priority</text>
  <rect x="270" y="1000" width="1060" height="1" fill="#e2e8f0"/>
  
  <!-- Task 1 -->
  <rect x="270" y="1001" width="1060" height="70" rx="0" fill="white"/>
  <text x="290" y="1030" font-family="Arial" font-size="16" fill="#1e293b">Website Homepage Redesign</text>
  <text x="290" y="1050" font-family="Arial" font-size="14" fill="#64748b">Create responsive design for the main landing page</text>
  
  <circle cx="600" cy="1035" r="15" fill="#c7d2fe"/>
  <text x="600" y="1040" font-family="Arial" font-size="12" text-anchor="middle" fill="#4338ca">AS</text>
  <text x="630" y="1035" font-family="Arial" font-size="14" fill="#64748b">Alice Smith</text>
  
  <rect x="750" y="1025" width="100" height="25" rx="12.5" fill="#dcfce7"/>
  <text x="800" y="1040" font-family="Arial" font-size="12" text-anchor="middle" fill="#16a34a">Completed</text>
  
  <text x="900" y="1035" font-family="Arial" font-size="14" fill="#64748b">Apr 15, 2025</text>
  
  <!-- Subtask progress bar -->
  <rect x="1050" y="1030" width="100" height="10" rx="5" fill="#f1f5f9"/>
  <rect x="1050" y="1030" width="100" height="10" rx="5" fill="#10b981"/>
  <text x="1160" y="1040" font-family="Arial" font-size="12" fill="#64748b">4/4</text>
  
  <rect x="1200" y="1025" width="70" height="25" rx="12.5" fill="#fee2e2"/>
  <text x="1235" y="1040" font-family="Arial" font-size="12" text-anchor="middle" fill="#ef4444">High</text>
  
  <!-- Task 2 -->
  <rect x="270" y="1071" width="1060" height="70" rx="0" fill="#f8fafc"/>
  <text x="290" y="1100" font-family="Arial" font-size="16" fill="#1e293b">Product Page Content</text>
  <text x="290" y="1120" font-family="Arial" font-size="14" fill="#64748b">Create copy and descriptions for all products</text>
  
  <circle cx="600" cy="1105" r="15" fill="#fed7aa"/>
  <text x="600" y="1110" font-family="Arial" font-size="12" text-anchor="middle" fill="#9a3412">SL</text>
  <text x="630" y="1105" font-family="Arial" font-size="14" fill="#64748b">Sarah Lee</text>
  
  <rect x="750" y="1095" width="100" height="25" rx="12.5" fill="#fef3c7"/>
  <text x="800" y="1110" font-family="Arial" font-size="12" text-anchor="middle" fill="#d97706">In Progress</text>
  
  <text x="900" y="1105" font-family="Arial" font-size="14" fill="#64748b">Apr 22, 2025</text>
  
  <!-- Subtask progress bar -->
  <rect x="1050" y="1100" width="100" height="10" rx="5" fill="#f1f5f9"/>
  <rect x="1050" y="1100" width="60" height="10" rx="5" fill="#f59e0b"/>
  <text x="1160" y="1110" font-family="Arial" font-size="12" fill="#64748b">6/10</text>
  
  <rect x="1200" y="1095" width="70" height="25" rx="12.5" fill="#dbeafe"/>
  <text x="1235" y="1110" font-family="Arial" font-size="12" text-anchor="middle" fill="#2563eb">Medium</text>
  
  <!-- Task 3 -->
  <rect x="270" y="1141" width="1060" height="70" rx="0" fill="white"/>
  <text x="290" y="1170" font-family="Arial" font-size="16" fill="#1e293b">API Integration</text>
  <text x="290" y="1190" font-family="Arial" font-size="14" fill="#64748b">Integrate payment processor API with checkout</text>
  
  <circle cx="600" cy="1175" r="15" fill="#fecaca"/>
  <text x="600" y="1180" font-family="Arial" font-size="12" text-anchor="middle" fill="#b91c1c">BJ</text>
  <text x="630" y="1175" font-family="Arial" font-size="14" fill="#64748b">Bob Johnson</text>
  
  <rect x="750" y="1165" width="100" height="25" rx="12.5" fill="#fef3c7"/>
  <text x="800" y="1180" font-family="Arial" font-size="12" text-anchor="middle" fill="#d97706">In Progress</text>
  
  <text x="900" y="1175" font-family="Arial" font-size="14" fill="#64748b">May 05, 2025</text>
  
  <!-- Subtask progress bar -->
  <rect x="1050" y="1170" width="100" height="10" rx="5" fill="#f1f5f9"/>
  <rect x="1050" y="1170" width="30" height="10" rx="5" fill="#f59e0b"/>
  <text x="1160" y="1180" font-family="Arial" font-size="12" fill="#64748b">3/8</text>
  
  <rect x="1200" y="1165" width="70" height="25" rx="12.5" fill="#fee2e2"/>
  <text x="1235" y="1180" font-family="Arial" font-size="12" text-anchor="middle" fill="#ef4444">High</text>
  
  <!-- Task 4 -->
  <rect x="270" y="1211" width="1060" height="70" rx="0" fill="#f8fafc"/>
  <text x="290" y="1240" font-family="Arial" font-size="16" fill="#1e293b">Marketing Materials</text>
  <text x="290" y="1260" font-family="Arial" font-size="14" fill="#64748b">Create email templates and social media assets</text>
  
  <circle cx="600" cy="1245" r="15" fill="#bfdbfe"/>
  <text x="600" y="1250" font-family="Arial" font-size="12" text-anchor="middle" fill="#1e40af">JD</text>
  <text x="630" y="1245" font-family="Arial" font-size="14" fill="#64748b">John Doe</text>
  
  <rect x="750" y="1235" width="100" height="25" rx="12.5" fill="#e0e7ff"/>
  <text x="800" y="1250" font-family="Arial" font-size="12" text-anchor="middle" fill="#4f46e5">Planned</text>
  
  <text x="900" y="1245" font-family="Arial" font-size="14" fill="#64748b">May 12, 2025</text>
  
  <!-- Subtask progress bar -->
  <rect x="1050" y="1240" width="100" height="10" rx="5" fill="#f1f5f9"/>
  <rect x="1050" y="1240" width="0" height="10" rx="5" fill="#4f46e5"/>
  <text x="1160" y="1250" font-family="Arial" font-size="12" fill="#64748b">0/6</text>
  
  <rect x="1200" y="1235" width="70" height="25" rx="12.5" fill="#f3e8ff"/>
  <text x="1235" y="1250" font-family="Arial" font-size="12" text-anchor="middle" fill="#9333ea">Normal</text>
  
  <!-- ===== DATA SHARING CONTROLS ===== -->
  <text x="270" y="1320" font-family="Arial" font-size="18" font-weight="bold" fill="#1e293b">Data Sharing</text>
  <text x="270" y="1345" font-family="Arial" font-size="14" fill="#64748b">Control who can access your project analytics</text>
  
  <rect x="270" y="1370" width="1060" height="80" rx="10" fill="white" filter="drop-shadow(0 2px 4px rgba(0,0,0,0.05))"/>
  
  <text x="300" y="1405" font-family="Arial" font-size="16" font-weight="bold" fill="#1e293b">Share Analytics Dashboard</text>
  <text x="300" y="1430" font-family="Arial" font-size="14" fill="#64748b">Choose who can view this dashboard and what metrics they can access</text>
  
  <!-- Sharing Controls -->
  <rect x="710" y="1395" width="200" height="35" rx="6" fill="#f8fafc" stroke="#cbd5e1" stroke-width="1"/>
  <text x="725" y="1417" font-family="Arial" font-size="14" fill="#64748b">Select team members</text>
  <text x="890" y="1417" font-family="Arial" font-size="14" fill="#64748b">▼</text>
  
  <rect x="920" y="1395" width="140" height="35" rx="6" fill="#f8fafc" stroke="#cbd5e1" stroke-width="1"/>
  <text x="935" y="1417" font-family="Arial" font-size="14" fill="#64748b">All metrics</text>
  <text x="1040" y="1417" font-family="Arial" font-size="14" fill="#64748b">▼</text>
  
  <rect x="1070" y="1395" width="120" height="35" rx="6" fill="#3b82f6"/>
  <text x="1130" y="1417" font-family="Arial" font-size="14" text-anchor="middle" fill="white">Share</text>
  
  <!-- Shared With List -->
  <rect x="270" y="1470" width="1060" height="50" rx="6" fill="#f8fafc"/>
  <text x="300" y="1500" font-family="Arial" font-size="16" font-weight="bold" fill="#1e293b">Current Shares</text>
  <rect x="270" y="1520" width="1060" height="1" fill="#e2e8f0"/>
  
  <rect x="270" y="1521" width="1060" height="70" rx="0" fill="white"/>
  <circle cx="300" cy="1555" r="15" fill="#f0f9ff"/>
  <text x="300" y="1560" font-family="Arial" font-size="14" text-anchor="middle" fill="#0284c7">T</text>
  <text x="330" y="1550" font-family="Arial" font-size="16" fill="#1e293b">Marketing Team</text>
  <text x="330" y="1570" font-family="Arial" font-size="14" fill="#64748b">All members</text>
  <text x="700" y="1560" font-family="Arial" font-size="14" fill="#64748b">Full dashboard access</text>
  <rect x="1080" y="1540" width="100" height="30" rx="15" fill="#fee2e2"/>
  <text x="1130" y="1560" font-family="Arial" font-size="14" text-anchor="middle" fill="#ef4444">Revoke</text>
  
  <rect x="270" y="1591" width="1060" height="70" rx="0" fill="#f8fafc"/>
  <circle cx="300" cy="1625" r="15" fill="#c7d2fe"/>
  <text x="300" y="1630" font-family="Arial" font-size="12" text-anchor="middle" fill="#4338ca">AS</text>
  <text x="330" y="1620" font-family="Arial" font-size="16" fill="#1e293b">Alice Smith</text>
  <text x="330" y="1640" font-family="Arial" font-size="14" fill="#64748b">Designer</text>
  <text x="700" y="1630" font-family="Arial" font-size="14" fill="#64748b">Contribution metrics only</text>
  <rect x="1080" y="1610" width="100" height="30" rx="15" fill="#fee2e2"/>
  <text x="1130" y="1630" font-family="Arial" font-size="14" text-anchor="middle" fill="#ef4444">Revoke</text>
</svg>
